<svg width="16" height="12" viewBox="0 0 16 12" xmlns="http://www.w3.org/2000/svg">
<path d="M8 0.666504C4.36364 0.666504 1.25818 2.92832 0 6.12105C1.25818 9.31378 4.36364 11.5756 8 11.5756C11.6364 11.5756 14.7418 9.31378 16 6.12105C14.7418 2.92832 11.6364 0.666504 8 0.666504ZM8 9.75741C5.99273 9.75741 4.36364 8.12832 4.36364 6.12105C4.36364 4.11378 5.99273 2.48469 8 2.48469C10.0073 2.48469 11.6364 4.11378 11.6364 6.12105C11.6364 8.12832 10.0073 9.75741 8 9.75741ZM8 3.93923C6.79273 3.93923 5.81818 4.91378 5.81818 6.12105C5.81818 7.32832 6.79273 8.30287 8 8.30287C9.20727 8.30287 10.1818 7.32832 10.1818 6.12105C10.1818 4.91378 9.20727 3.93923 8 3.93923Z"/>
</svg>
