<svg width="96" height="53" viewBox="0 0 96 53" fill="none" xmlns="http://www.w3.org/2000/svg">
<path opacity="0.27" d="M49.1836 16.3459C51.1043 15.4629 53.1886 14.9999 55.3166 14.9999C63.3703 14.9999 69.918 21.4607 69.918 29.4074C69.918 30.6565 69.7543 31.8733 69.4378 33.0685C74.0539 34.0269 77.5351 38.0864 77.5351 42.932C77.5351 43.4596 77.4805 43.9657 77.4042 44.4718H85.6651C89.561 44.4718 92.7257 41.3491 92.7257 37.505C92.7257 33.6608 89.6156 30.5919 85.7634 30.5381H85.5778L83.0461 30.5811L84.0501 28.2876C84.6721 26.8554 84.9995 25.3479 84.9995 23.7865C84.9995 17.5196 79.8377 12.4263 73.4865 12.4263C71.3366 12.4263 69.2195 13.0293 67.3862 14.1707L65.7384 15.1937L64.9963 13.417C62.41 7.22539 56.3643 3.23047 49.5874 3.23047C45.4514 3.23047 41.6756 4.73799 38.751 7.20385C43.1925 8.86212 46.9247 12.071 49.1836 16.3459Z" fill="url(#paint0_linear_377_16160)"/>
<path d="M87.7825 27.523C88.1099 26.3169 88.2736 25.0679 88.2736 23.7972C88.2736 15.7536 81.6386 9.20662 73.4867 9.20662C71.326 9.20662 69.2089 9.68041 67.2555 10.5742C63.8398 4.09183 57.0847 0 49.5876 0C43.8693 0 38.7185 2.40126 35.0845 6.22389C34.0042 6.04084 32.891 5.93316 31.767 5.93316C20.9197 5.93316 12.1021 14.6445 12.1021 25.3371C12.1021 25.5524 12.1021 25.7785 12.113 25.9939C5.30346 26.7907 0.0107422 32.5193 0.0107422 39.4431C0.0107422 46.9161 6.16557 52.9892 13.7391 52.9892H67.321C71.2059 52.9892 74.5889 50.8356 76.3131 47.6914H85.6654C91.3619 47.6914 95.9998 43.115 95.9998 37.4941C95.9998 32.5839 92.4641 28.4705 87.7825 27.5122V27.523ZM74.076 44.4718C73.945 45.0425 73.7268 45.5809 73.4649 46.087C73.1484 46.6792 72.7555 47.2284 72.2863 47.7022C71.0204 48.9835 69.2634 49.7696 67.321 49.7696H13.7281C7.96618 49.7696 3.27367 45.1394 3.27367 39.4539C3.27367 33.7684 7.96618 29.1382 13.6845 29.1382L15.7252 29.1705L15.496 27.3399C15.3978 26.5861 15.3542 25.9508 15.3542 25.3478C15.3542 16.4319 22.7094 9.17432 31.7452 9.17432C32.0726 9.17432 32.4 9.19586 32.7273 9.20662C33.3385 9.23893 33.9387 9.3143 34.528 9.41121C35.1173 9.50813 35.7065 9.64811 36.2849 9.80963C41.0211 11.1449 44.9715 14.5368 46.914 19.2101L47.6561 20.9868L49.3039 19.9638C51.1154 18.844 53.1889 18.2517 55.306 18.2517C61.5481 18.2517 66.6335 23.2588 66.6335 29.4289C66.6335 30.9579 66.317 32.4547 65.7059 33.8545L64.7019 36.1481L67.2337 36.1158H67.4192C71.195 36.1589 74.2506 39.2062 74.2506 42.9535C74.2506 43.4811 74.1851 43.998 74.0651 44.4933L74.076 44.4718ZM85.6654 44.4718H77.4044C77.4808 43.9657 77.5353 43.4596 77.5353 42.9319C77.5353 38.0863 74.0542 34.0376 69.438 33.0685C69.7545 31.884 69.9182 30.6564 69.9182 29.4074C69.9182 21.4606 63.3705 14.9998 55.3169 14.9998C53.1889 14.9998 51.1045 15.4628 49.1839 16.3458C46.9249 12.0709 43.1927 8.86205 38.7512 7.20378C41.6649 4.72714 45.4517 3.23039 49.5876 3.23039C56.3645 3.23039 62.4102 7.22532 64.9965 13.4169L65.7386 15.1936L67.3864 14.1707C69.2307 13.0293 71.3369 12.4262 73.4867 12.4262C79.8379 12.4262 84.9997 17.5195 84.9997 23.7865C84.9997 25.3478 84.6832 26.8553 84.0503 28.2875L83.0463 30.5811L85.5781 30.5488H85.7636C89.6158 30.5918 92.726 33.693 92.726 37.5049C92.726 41.3167 89.5613 44.4718 85.6654 44.4718Z" fill="url(#paint1_linear_377_16160)"/>
<path d="M45.2011 36.5785C44.3281 36.3847 43.466 36.9338 43.2586 37.7953C43.1931 38.0429 42.5493 40.2719 38.7735 40.2719C34.9976 40.2719 34.3538 38.0752 34.2883 37.806C34.1028 36.9446 33.2516 36.3954 32.3676 36.5677C31.4837 36.74 30.9053 37.5907 31.0799 38.4737C31.4401 40.2181 33.5026 43.5131 38.7735 43.5131C44.0443 43.5131 46.1069 40.2181 46.4561 38.4737C46.6307 37.6122 46.0741 36.7831 45.2011 36.6V36.5785Z" fill="url(#paint2_linear_377_16160)"/>
<path d="M30.0752 32.8851C31.9375 32.8851 33.4472 31.3954 33.4472 29.5578C33.4472 27.7202 31.9375 26.2305 30.0752 26.2305C28.2128 26.2305 26.7031 27.7202 26.7031 29.5578C26.7031 31.3954 28.2128 32.8851 30.0752 32.8851Z" fill="url(#paint3_linear_377_16160)"/>
<path d="M48.2236 32.8851C50.086 32.8851 51.5957 31.3954 51.5957 29.5578C51.5957 27.7202 50.086 26.2305 48.2236 26.2305C46.3613 26.2305 44.8516 27.7202 44.8516 29.5578C44.8516 31.3954 46.3613 32.8851 48.2236 32.8851Z" fill="url(#paint4_linear_377_16160)"/>
<defs>
<linearGradient id="paint0_linear_377_16160" x1="65.1382" y1="65.071" x2="66.0732" y2="-3.58601" gradientUnits="userSpaceOnUse">
<stop stop-color="#B829FF"/>
<stop offset="0.53" stop-color="#792EE5"/>
<stop offset="1" stop-color="#624EFF"/>
</linearGradient>
<linearGradient id="paint1_linear_377_16160" x1="47.9944" y1="68.5813" x2="47.9944" y2="-8.19443" gradientUnits="userSpaceOnUse">
<stop stop-color="#B829FF"/>
<stop offset="0.53" stop-color="#792EE5"/>
<stop offset="1" stop-color="#624EFF"/>
</linearGradient>
<linearGradient id="paint2_linear_377_16160" x1="38.7625" y1="68.5809" x2="38.7625" y2="-8.19477" gradientUnits="userSpaceOnUse">
<stop stop-color="#B829FF"/>
<stop offset="0.53" stop-color="#792EE5"/>
<stop offset="1" stop-color="#624EFF"/>
</linearGradient>
<linearGradient id="paint3_linear_377_16160" x1="30.0752" y1="68.5809" x2="30.0752" y2="-8.19476" gradientUnits="userSpaceOnUse">
<stop stop-color="#B829FF"/>
<stop offset="0.53" stop-color="#792EE5"/>
<stop offset="1" stop-color="#624EFF"/>
</linearGradient>
<linearGradient id="paint4_linear_377_16160" x1="48.2236" y1="68.5809" x2="48.2236" y2="-8.19476" gradientUnits="userSpaceOnUse">
<stop stop-color="#B829FF"/>
<stop offset="0.53" stop-color="#792EE5"/>
<stop offset="1" stop-color="#624EFF"/>
</linearGradient>
</defs>
</svg>
